<?xml version="1.0" encoding="utf-8"?>
<!-- Generator: Adobe Illustrator 16.0.0, SVG Export Plug-In . SVG Version: 6.00 Build 0)  -->
<!DOCTYPE svg PUBLIC "-//W3C//DTD SVG 1.1//EN" "http://www.w3.org/Graphics/SVG/1.1/DTD/svg11.dtd">
<svg version="1.1" xmlns="http://www.w3.org/2000/svg" xmlns:xlink="http://www.w3.org/1999/xlink" x="0px" y="0px" width="64px"
	 height="64px" viewBox="0 0 64 64" enable-background="new 0 0 64 64" xml:space="preserve">
<g id="Capa_1">
</g>
<g id="Layer_2">
	<g>
		<path fill="#FFFFFF" d="M51.75,51.744h-3.828l-5.952-14.61c4.819-3.062,7.78-8.396,7.78-14.14c0-9.236-7.514-16.75-16.75-16.75
			c-9.236,0-16.75,7.514-16.75,16.75c0,5.798,3.004,11.16,7.891,14.211l-6.058,14.539H14.25c-0.553,0-1,0.447-1,1v2.875
			c0,2.173,2.636,3.875,6,3.875h27.5c3.364,0,6-1.702,6-3.875v-2.875C52.75,52.191,52.303,51.744,51.75,51.744z M30,22.994
			c0-1.654,1.346-3,3-3c1.654,0,3,1.346,3,3c0,1.654-1.346,3-3,3C31.346,25.994,30,24.648,30,22.994z M37.26,25.575
			c0.46-0.756,0.74-1.633,0.74-2.581c0-2.757-2.243-5-5-5s-5,2.243-5,5c0,1.05,0.329,2.023,0.884,2.829l-1.585,3.803
			c-1.925-1.651-3.049-4.051-3.049-6.632c0-4.825,3.925-8.75,8.75-8.75s8.75,3.925,8.75,8.75c0,2.499-1.068,4.845-2.896,6.493
			L37.26,25.575z M18.25,22.994c0-8.133,6.617-14.75,14.75-14.75s14.75,6.617,14.75,14.75c0,4.935-2.484,9.529-6.548,12.255
			l-1.56-3.827c2.576-2.033,4.106-5.119,4.106-8.428c0-5.928-4.822-10.75-10.75-10.75c-5.928,0-10.75,4.822-10.75,10.75
			c0,3.387,1.585,6.512,4.254,8.541l-1.583,3.799C20.782,32.618,18.25,27.989,18.25,22.994z M50.75,55.619
			c0,0.885-1.711,1.875-4,1.875h-27.5c-2.289,0-4-0.99-4-1.875v-1.875h3.5h28.5h3.5V55.619z"/>
		<circle fill="#FFFFFF" cx="33" cy="23.083" r="2.126"/>
	</g>
</g>
</svg>
