<?xml version="1.0" encoding="utf-8"?>
<!-- Generator: Adobe Illustrator 16.0.0, SVG Export Plug-In . SVG Version: 6.00 Build 0)  -->
<!DOCTYPE svg PUBLIC "-//W3C//DTD SVG 1.1//EN" "http://www.w3.org/Graphics/SVG/1.1/DTD/svg11.dtd">
<svg version="1.1" id="Layer_1" xmlns="http://www.w3.org/2000/svg" xmlns:xlink="http://www.w3.org/1999/xlink" x="0px" y="0px"
	 width="64px" height="64px" viewBox="0 0 64 64" enable-background="new 0 0 64 64" xml:space="preserve">
<g>
	<g>
		<path fill="#FFFFFF" d="M59.66,25.581c-2.226,0-4.034,2.333-4.034,5.202v1.536h-5.719l0.007-10.498
			c0-0.915-0.277-1.778-0.779-2.432c-0.506-0.649-1.176-1.005-1.888-1.005H24.899c-0.947,0-1.83,0.657-2.307,1.717l-5.47,12.215
			h-1.118v-3.673c0-1.69-1.066-3.064-2.377-3.064c-1.311,0-2.375,1.375-2.375,3.064v3.673H10.29v-3.673
			c0-1.69-1.066-3.064-2.375-3.064c-1.314,0-2.379,1.375-2.379,3.064v3.673H4.511c-2.319,0-4.207,2.432-4.207,5.422
			c0,2.989,1.887,5.422,4.207,5.422h1.025v5.081c0,1.691,1.067,3.063,2.379,3.063c1.31,0,2.375-1.374,2.375-3.063V43.16h0.963v5.081
			c0,1.691,1.066,3.063,2.375,3.063c1.313,0,2.377-1.374,2.377-3.063V43.16h0.485l6.102,13.623c0.477,1.063,1.359,1.717,2.307,1.717
			h14.895c0.951,0,1.836-0.654,2.309-1.717l6.104-13.623h7.42v4.229c0,2.869,1.809,5.204,4.036,5.204
			c2.229,0,4.037-2.335,4.037-5.204V30.78C63.695,27.914,61.886,25.581,59.66,25.581z M35.215,35.161l6.034,0.009L24.44,50.275
			l-0.467-0.722l0.079-0.104l7.787-10.037h-6.096L38.889,26.61h4.723L35.215,35.161z"/>
	</g>
	<g>
		<path fill="#FFFFFF" d="M28.577,15.362h3.278v2.61c0,1.813,1.146,3.288,2.551,3.288s2.55-1.475,2.55-3.288v-2.61h3.281
			c1.468,0,2.663-1.539,2.663-3.429c0-1.893-1.195-3.435-2.663-3.435h-11.66c-1.469,0-2.665,1.542-2.665,3.435
			C25.913,13.824,27.108,15.362,28.577,15.362z"/>
	</g>
</g>
</svg>
