<?xml version="1.0" encoding="utf-8"?>
<!-- Generator: Adobe Illustrator 16.0.0, SVG Export Plug-In . SVG Version: 6.00 Build 0)  -->
<!DOCTYPE svg PUBLIC "-//W3C//DTD SVG 1.1//EN" "http://www.w3.org/Graphics/SVG/1.1/DTD/svg11.dtd">
<svg version="1.1" id="Layer_1" xmlns="http://www.w3.org/2000/svg" xmlns:xlink="http://www.w3.org/1999/xlink" x="0px" y="0px"
	 width="500px" height="500px" viewBox="0 0 500 500" enable-background="new 0 0 500 500" xml:space="preserve">
<path fill="#FFFFFF" d="M445.064,153.932c8.583-11,6.626-26.877-4.375-35.462l-56.887-44.393l-2.648-2.066l-56.887-44.392
	c-11.001-8.584-26.879-6.625-35.462,4.375c0,0-276.072,343.042-235.063,375.043c0,0-5.568,31.863,26.089,56.566
	c31.655,24.703,58.563,9.492,58.563,9.492C179.401,505.096,445.064,153.932,445.064,153.932z M309.104,130.366l34.73,27.103
	l-20.057,25.701l-34.73-27.103L309.104,130.366z M279.343,168.503l34.73,27.102l-20.057,25.701l-34.73-27.102L279.343,168.503z
	 M249.582,206.64l34.73,27.103l-20.057,25.701l-34.73-27.102L249.582,206.64z M243.493,120.518l20.056-25.701l34.731,27.103
	l-20.057,25.701L243.493,120.518z M268.52,160.057l-20.057,25.701l-34.73-27.103l20.056-25.701L268.52,160.057z M306.074,66.864
	c7.633,5.956,8.991,16.97,3.036,24.602c-5.955,7.631-16.97,8.991-24.603,3.035c-7.631-5.955-8.989-16.97-3.034-24.601
	C287.43,62.268,298.443,60.909,306.074,66.864z M183.972,196.792l20.056-25.701l34.73,27.103l-20.056,25.701L183.972,196.792z
	 M199.299,376.029l-4.348-35.25c-3.234,1.9-6.966,2.734-10.654,2.441l4.256,34.506c-12.244,0.656-24.771-2.936-35.197-11.072
	c-10.427-8.135-16.954-19.414-19.295-31.451l34.506-4.258c-1.181-3.506-1.278-7.328-0.221-10.928l-35.251,4.35
	c0.153-11.088,3.794-22.219,11.142-31.635s17.261-15.652,27.979-18.496l4.35,35.25c3.232-1.898,6.964-2.734,10.652-2.439
	l-4.257-34.506c12.247-0.658,24.773,2.934,35.199,11.07c10.426,8.135,16.955,19.414,19.293,31.453l-34.505,4.258
	c1.182,3.504,1.279,7.328,0.223,10.926l35.249-4.348c-0.153,11.088-3.793,22.219-11.142,31.635
	C219.93,366.951,210.017,373.186,199.299,376.029z M310.684,295.674l-34.73-27.102l20.057-25.702l34.73,27.102L310.684,295.674z
	 M340.444,257.537l-34.729-27.102l20.056-25.701l34.73,27.102L340.444,257.537z M370.205,219.4l-34.73-27.102l20.057-25.701
	l34.73,27.102L370.205,219.4z"/>
</svg>
