<?xml version="1.0" encoding="utf-8"?>
<!-- Generator: Adobe Illustrator 16.0.0, SVG Export Plug-In . SVG Version: 6.00 Build 0)  -->
<!DOCTYPE svg PUBLIC "-//W3C//DTD SVG 1.1//EN" "http://www.w3.org/Graphics/SVG/1.1/DTD/svg11.dtd">
<svg version="1.1" id="Layer_1" xmlns="http://www.w3.org/2000/svg" xmlns:xlink="http://www.w3.org/1999/xlink" x="0px" y="0px"
	 width="100px" height="100px" viewBox="0 0 100 100" enable-background="new 0 0 100 100" xml:space="preserve">
<g>
	<path fill="#FFFFFF" d="M26.333,74.561c-0.873-6.03-1.543-12.093-2.318-18.139c-0.203-1.582-0.181-2.959,1.506-3.851
		c0.435-0.229,0.876-1.233,0.709-1.615c-0.221-0.499-1.017-0.939-1.614-1.014c-0.489-0.062-1.051,0.449-1.579,0.707
		c-0.604,0.291-1.185,0.75-1.817,0.843c-1.76,0.259-2.042,0.969-1.22,2.582c0.689,1.351,1.293,2.823,1.533,4.307
		c0.606,3.749,1.146,7.522,1.412,11.308c0.264,3.761,1.977,13.982-0.274,17.938c-0.365,0.469,0.264,1.205,0.643,1.635
		c0.223,0.253,1.104,0.327,1.32,0.111c0.914-0.904,1.813-1.54,3.146-0.942c0.107,0.048,0.272-0.036,0.47-0.069
		c1.138-0.398,0.801-1.189,0.506-2.034C28.171,84.654,26.584,76.288,26.333,74.561z"/>
	<path fill="#FFFFFF" d="M78.781,51.492c-0.633-0.092-1.213-0.551-1.817-0.844c-0.528-0.256-1.091-0.768-1.579-0.706
		c-0.598,0.075-1.395,0.515-1.613,1.014c-0.168,0.381,0.273,1.386,0.709,1.615c1.687,0.892,1.709,2.269,1.506,3.851
		c-0.776,6.046-1.445,12.108-2.319,18.14c-0.25,1.727-2.041,10.093-2.626,11.764c-0.296,0.845-0.633,1.636,0.505,2.033
		c0.197,0.033,0.363,0.119,0.472,0.07c1.334-0.598,2.231,0.038,3.146,0.942c0.218,0.216,1.099,0.142,1.321-0.111
		c0.379-0.43,1.008-1.167,0.643-1.635c-2.251-3.955-0.335-14.177-0.07-17.938c0.267-3.785,0.807-7.558,1.412-11.307
		c0.24-1.482,0.844-2.957,1.532-4.307C80.82,52.46,80.54,51.75,78.781,51.492z"/>
	<path fill="#FFFFFF" d="M91.201,4.799H8.799c-2.206,0-4,1.794-4,4v82.402c0,2.206,1.794,4,4,4h82.402c2.206,0,4-1.794,4-4V8.799
		C95.201,6.593,93.407,4.799,91.201,4.799z M53.63,48.138c1.438,1.348,3.438,2.554,5.845,3.417c1.426,0.512,2.865,0.846,4.24,0.997
		c1.198,1.537,1.666,3.001,1.176,3.808c-0.39,0.64-1.482,0.955-2.93,0.847c-1.777-0.135-3.922-0.897-5.887-2.092
		c-1.389-0.845-2.621-1.87-3.561-2.935C53.395,50.74,53.764,49.358,53.63,48.138z M55.791,26.508
		c0.929,0.657,2.027,1.224,3.223,1.652c1.109,0.398,2.234,0.652,3.309,0.752c0.1,0.179,0.186,0.331,0.251,0.443
		c0.172,0.299,0.487,0.487,0.835,0.495c0.008,0.001,0.015,0.001,0.023,0.001c0.336,0,0.65-0.172,0.834-0.456l0.342-0.535
		c0.293-0.047,0.576-0.105,0.842-0.181c2.881,1.707,4.045,3.718,3.676,4.747c-0.253,0.705-1.262,1.235-2.7,1.417
		c-1.768,0.225-4.022-0.092-6.186-0.868c-4.406-1.58-7.071-4.508-6.513-6.071C53.939,27.313,54.764,26.761,55.791,26.508z
		 M54.882,21.894c0.238-0.664,1.359-1.093,2.856-1.093c0.402,0,0.826,0.04,1.258,0.099c0.436,1.989,1.383,4.194,2.215,5.89
		c-0.513-0.112-1.031-0.252-1.549-0.438c-1.588-0.569-3.014-1.442-3.911-2.394C55.021,23.184,54.695,22.412,54.882,21.894z
		 M69.244,40.937c-0.253,0.705-1.262,1.235-2.7,1.417c-1.769,0.225-4.022-0.092-6.187-0.868c-4.405-1.58-7.07-4.509-6.512-6.071
		c0.196-0.546,0.701-0.89,1.266-1.106c1.201,0.824,2.633,1.554,4.242,2.131c2.004,0.719,4.039,1.094,5.877,1.094
		c0.524,0,1.035-0.031,1.521-0.093c0.167-0.021,0.321-0.055,0.48-0.083C68.768,38.638,69.566,40.038,69.244,40.937z M69.244,48.542
		c-0.252,0.705-1.262,1.235-2.7,1.417c-1.769,0.225-4.022-0.092-6.187-0.868c-4.405-1.58-7.07-4.508-6.512-6.071
		c0.174-0.48,0.697-0.879,1.473-1.143c1.186,0.799,2.584,1.509,4.156,2.072c2.004,0.719,4.037,1.094,5.877,1.094
		c0.523,0,1.033-0.031,1.521-0.093c0.101-0.013,0.188-0.034,0.286-0.049C68.734,46.195,69.575,47.62,69.244,48.542z M55.588,88.146
		c0.708-0.646,1.209-1.735,2.162-1.871c0.952-0.137,0.918,0.482,2.003,1.104c-1.313,0.805-2.065,1.406-2.923,1.71
		C56.563,89.184,56.01,88.482,55.588,88.146z M57.455,83.593c-3.36,4.05-11.707,2.128-13.529-0.466
		c-1.398-1.716-1.255-3.759,0.269-4.886c1.101-0.815,2.059-1,2.968,0.458c0.775,1.242,1.808,2.363,2.893,3.355
		c0.351,0.32,1.465,0.329,1.824,0.017c1.054-0.916,1.851-2.118,2.849-3.104c0.543-0.535,1.504-1.351,1.905-1.179
		c0.847,0.364,2.019,1.288,2.028,1.996C58.68,81.083,58.344,82.875,57.455,83.593z M44.024,86.286
		c0.768-0.005,1.676,0.929,2.892,1.666c-0.816,0.625-1.358,1.244-1.548,1.149c-0.86-0.424-1.622-1.05-2.418-1.604
		C43.317,87.07,43.256,86.292,44.024,86.286z M47.82,90.302c2.142-1.375,4.094-1.396,6.241-0.034c0.7,0.445,1.361,0.75,1.984,0.934
		H45.918C46.523,91.023,47.159,90.727,47.82,90.302z M58.445,91.201c1.272-0.458,2.25-1.717,2.871-3.729
		c0.359-1.174,0.484-4.253,2.326-4.974c2.736-2.36,6.814-5.695,5.908-9.022c-0.417-1.045-0.799-2.728-1.682-4.082
		c-2.596-3.982-7.031-4.588-10.53-1.555c-1.272,1.104-2.473,2.305-3.6,3.557c-2.015,2.236-3.507,2.248-5.515,0.031
		c-1.131-1.248-2.322-2.457-3.597-3.554c-3.643-3.136-8.28-2.319-10.845,1.847c-2.052,3.334-1.71,5.92,0.969,8.859
		c0.834,0.915,1.342,2.125,2,3.201c2.87,1.958,3.427,3.931,3.865,5.623c0.53,2.049,1.533,3.332,2.848,3.797H8.799V8.799h39.452
		c-0.337,0.212-0.574,0.571-0.574,1c0,0.479,0.282,0.889,0.688,1.082c0.221,0.266,3.973,0.078,3.973,0.078
		c0.076,0,0.139,0.062,0.139,0.138v0.742c0,0.076-0.063,0.138-0.139,0.138h-3.052c-0.663,0-1.2,0.538-1.2,1.201
		c0,0.663,0.537,1.201,1.2,1.201h2.247c0,0.008-0.002,0.016-0.002,0.024v0.792H49.79c-0.522,0-0.963,0.336-1.128,0.802
		c-1.029,0.382-1.765,1.371-1.765,2.533v0.895c-0.771-0.351-1.733-0.545-2.862-0.545c-0.763,0-1.567,0.096-2.385,0.266
		c0.022-0.709-0.063-1.351-0.305-1.873c-1.482-3.21-7.73-4.735-8.438-4.899c-0.04-0.009-0.085-0.016-0.126-0.021
		c0,0-0.217-0.021-0.559-0.021c-1.081,0-3.048,0.218-4.064,1.678c-0.733,1.054-0.783,2.463-0.146,4.188
		c0.026,0.07,0.063,0.136,0.104,0.199c-0.153-0.096-0.313-0.174-0.461-0.224c-0.469-0.155-1.118,0.236-1.688,0.385
		c-0.649,0.169-1.308,0.506-1.946,0.474c-1.775-0.089-2.189,0.554-1.697,2.295c0.414,1.458,0.72,3.021,0.666,4.523
		c-0.134,3.795-0.337,7.601-0.813,11.365c-0.473,3.741-0.264,7.36-3.24,10.802c-0.45,0.389,0.023,1.233,0.313,1.729
		c0.168,0.291,1.018,0.535,1.273,0.366c1.072-0.709,2.076-1.158,3.269-0.312c0.096,0.068,0.275,0.017,0.475,0.023
		c1.193-0.169,1.017-1.012,0.892-1.897c-0.249-1.753-0.695-3.527-0.605-5.27c0.316-6.086,0.838-12.163,1.253-18.244
		c0.107-1.592,0.398-2.938,2.226-3.485c0.471-0.14,1.1-1.04,1.01-1.446c-0.003-0.013-0.011-0.027-0.015-0.041l2.646,2.976
		l1.951,3.046c-0.021,0.386,0.023,0.768,0.155,1.136c0.059,0.164,0.134,0.321,0.223,0.471c-3.15,2.186-4.639,4.947-3.815,7.242
		c0.294,0.821,0.852,1.5,1.626,2.024c-1.707,1.813-2.358,3.779-1.746,5.486c0.311,0.866,0.912,1.577,1.756,2.111
		c-1.701,1.811-2.367,3.79-1.756,5.494c0.609,1.7,2.327,2.812,4.835,3.13c0.011,0.002,0.021,0.002,0.032,0.004
		c-1.015,1.916-1.141,3.754-0.286,5.158c0.842,1.385,2.462,2.126,4.604,2.126c0.247,0,0.5-0.01,0.76-0.03
		c2.206-0.166,4.709-1.043,7.048-2.465c0.56-0.34,1.086-0.709,1.593-1.09c0.016,0.001,0.03,0.005,0.047,0.005h4.379
		c0.021,0,0.04,0.005,0.062,0.007c0.199,0.149,0.396,0.301,0.605,0.444c0.034,0.083,0.054,0.174,0.054,0.271v0.547
		c0,0.396-0.323,0.72-0.721,0.72H48.7c-0.664,0-1.201,0.538-1.201,1.201c0,0.342,0.144,0.647,0.373,0.866
		c0.192,0.408,0.603,0.691,1.083,0.691h3.868c0.272,0,0.495,0.223,0.495,0.497v0.483c0,0.273-0.223,0.496-0.495,0.496h-3.868
		c-0.663,0-1.2,0.537-1.2,1.201c0,0.479,0.282,0.89,0.688,1.082c0.221,0.267,0.549,0.438,0.921,0.438h3.052
		c0.076,0,0.139,0.062,0.139,0.138v0.381c0,0.076-0.063,0.139-0.139,0.139H49.36c-0.663,0-1.2,0.537-1.2,1.201
		s0.537,1.201,1.2,1.201h2.248c0,0.008-0.002,0.016-0.002,0.023v0.792h-1.741c-0.663,0-1.201,0.538-1.201,1.201s0.538,1.2,1.201,1.2
		h2.045c1.155,0,2.098-0.941,2.098-2.099V68.29c0-0.183-0.044-0.353-0.116-0.508c0.642-0.461,1.063-1.208,1.063-2.058v-0.381
		c0-0.408-0.105-0.789-0.277-1.131c0.637-0.531,1.044-1.331,1.044-2.225v-0.483c0-0.625-0.2-1.202-0.538-1.676
		c0.483-0.442,0.828-1.033,0.959-1.7c1.907,0.956,3.859,1.549,5.623,1.684c0.26,0.02,0.514,0.029,0.76,0.029
		c2.145,0,3.764-0.742,4.604-2.126c0.854-1.405,0.729-3.241-0.286-5.159c0.012,0,0.021-0.002,0.032-0.003
		c2.508-0.317,4.226-1.43,4.835-3.13c0.611-1.704-0.055-3.684-1.755-5.494c0.843-0.534,1.444-1.245,1.755-2.111
		c0.611-1.707-0.039-3.673-1.746-5.486c0.773-0.523,1.332-1.203,1.626-2.024c0.823-2.295-0.666-5.056-3.815-7.242
		c0.09-0.15,0.164-0.307,0.224-0.471c0.299-0.834,0.183-1.732-0.263-2.617l1.002-1.565l2.279-2.561
		c0.158,0.432,0.603,0.966,0.955,1.072c1.828,0.547,2.118,1.893,2.228,3.485c0.413,6.082,0.937,12.158,1.253,18.244
		c0.09,1.742-0.357,3.517-0.605,5.27c-0.126,0.886-0.303,1.728,0.891,1.897c0.199-0.006,0.38,0.045,0.476-0.023
		c1.192-0.846,2.197-0.397,3.271,0.312c0.254,0.169,1.104-0.075,1.272-0.366c0.289-0.496,0.763-1.34,0.313-1.729
		c-2.978-3.442-2.769-7.062-3.24-10.802c-0.477-3.764-0.68-7.57-0.813-11.365c-0.055-1.502,0.252-3.065,0.664-4.523
		c0.493-1.741,0.079-2.384-1.695-2.295c-0.641,0.032-1.299-0.305-1.947-0.474c-0.545-0.143-1.162-0.503-1.625-0.396
		c0.623-1.708,0.57-3.105-0.158-4.151c-1.016-1.46-2.982-1.678-4.063-1.678c-0.344,0-0.56,0.021-0.56,0.021
		c-0.042,0.004-0.087,0.012-0.126,0.021c-0.709,0.164-6.957,1.689-8.439,4.899c-0.217,0.469-0.308,1.034-0.308,1.658
		c-0.346-0.032-0.686-0.05-1.017-0.05c-1.195,0-2.213,0.211-3.003,0.604V18.53c0-0.857-0.4-1.62-1.022-2.115
		c0.137-0.278,0.219-0.586,0.219-0.916v-1.096c0-0.182-0.043-0.353-0.115-0.507c0.641-0.462,1.062-1.209,1.062-2.057v-0.381
		c0-0.349,0.108-2.059-1.284-2.658h37.608l0.003,82.402L58.445,91.201L58.445,91.201z M42.759,28.161
		c1.194-0.428,2.294-0.995,3.224-1.652c1.027,0.252,1.851,0.805,2.063,1.397c0.56,1.563-2.105,4.491-6.512,6.071
		c-2.163,0.776-4.418,1.093-6.186,0.868c-1.438-0.182-2.447-0.712-2.7-1.417c-0.35-0.973,0.674-2.821,3.218-4.462l0.276,0.432
		c0.182,0.284,0.496,0.456,0.834,0.456c0.008,0,0.016,0,0.023-0.001c0.346-0.008,0.662-0.196,0.835-0.495
		c0.061-0.105,0.139-0.244,0.229-0.406c0.125,0.005,0.249,0.013,0.377,0.013C39.802,28.963,41.295,28.686,42.759,28.161z
		 M39.089,27.009c0.816-1.643,1.777-3.824,2.259-5.825c0.928-0.25,1.843-0.383,2.687-0.383c1.497,0,2.618,0.429,2.856,1.093
		c0.186,0.518-0.14,1.29-0.869,2.064c-0.897,0.952-2.322,1.824-3.911,2.394C41.084,26.72,40.054,26.938,39.089,27.009z
		 M34.538,37.358c0.16,0.028,0.314,0.062,0.481,0.083c0.487,0.062,0.997,0.093,1.521,0.093c1.839,0,3.873-0.375,5.877-1.094
		c1.61-0.577,3.041-1.307,4.243-2.131c0.563,0.217,1.068,0.56,1.265,1.106c0.56,1.563-2.105,4.491-6.512,6.071
		c-2.163,0.775-4.418,1.093-6.186,0.868c-1.438-0.182-2.447-0.712-2.7-1.417C32.205,40.038,33.006,38.638,34.538,37.358z
		 M34.613,44.901c0.097,0.015,0.187,0.037,0.286,0.049c0.487,0.062,0.997,0.093,1.521,0.093c1.839,0,3.873-0.375,5.878-1.094
		c1.571-0.563,2.97-1.272,4.154-2.072c0.775,0.264,1.301,0.663,1.473,1.143c0.56,1.563-2.105,4.491-6.512,6.071
		c-2.163,0.775-4.418,1.092-6.186,0.868c-1.438-0.182-2.448-0.712-2.7-1.417C32.197,47.62,33.038,46.195,34.613,44.901z
		 M38.058,52.552c1.375-0.151,2.815-0.485,4.241-0.997c2.406-0.863,4.404-2.069,5.844-3.417c-0.134,1.22,0.235,2.603,1.115,4.042
		c-0.938,1.064-2.171,2.09-3.56,2.935c-1.964,1.194-4.109,1.957-5.887,2.092c-1.446,0.108-2.54-0.207-2.93-0.847
		C36.392,55.553,36.859,54.089,38.058,52.552z"/>
</g>
</svg>
