<?xml version="1.0" encoding="utf-8"?>
<!-- Generator: Adobe Illustrator 16.0.0, SVG Export Plug-In . SVG Version: 6.00 Build 0)  -->
<!DOCTYPE svg PUBLIC "-//W3C//DTD SVG 1.1//EN" "http://www.w3.org/Graphics/SVG/1.1/DTD/svg11.dtd">
<svg version="1.1" id="Layer_1" xmlns="http://www.w3.org/2000/svg" xmlns:xlink="http://www.w3.org/1999/xlink" x="0px" y="0px"
	 width="112px" height="112px" viewBox="0 0 112 112" enable-background="new 0 0 112 112" xml:space="preserve">
 
<path fill="#FFFFFF" d="M51.8,70h41.534c0.466,0.934,0.466,1.4,0.466,2.334s-0.466,1.398-0.466,2.332H51.8
	c-0.466-0.934-0.466-1.398-0.466-2.332C51.333,71.4,51.8,70.934,51.8,70z M112,38.267V106.4c0,3.266-2.334,5.6-5.6,5.6H5.6
	c-3.267,0-5.6-2.334-5.6-5.6V38.267c0-3.078,2.083-5.301,5.055-5.551C6.003,29.973,8.602,28,11.666,28c1.96,0,3.73,0.808,5,2.106
	L98,6.99C98.006,3.128,101.137,0,105,0c3.866,0,7,3.134,7,7s-3.134,7-7,7c-2.773,0-5.163-1.617-6.296-3.956L26.236,32.666H106.4
	C109.666,32.667,112,35,112,38.267z M28,86.334c0-3.734-3.268-7-7-7s-7,3.266-7,7c0,3.732,3.268,7,7,7S28,90.066,28,86.334z
	 M28,58.334c0-3.734-3.268-7-7-7s-7,3.267-7,7c0,3.732,3.268,7,7,7S28,62.066,28,58.334z M98,72.334
	c0-14-11.666-25.667-25.666-25.667S46.667,58.334,46.667,72.334S58.334,98,72.334,98S98,86.334,98,72.334z M54.6,60.666
	c-0.934,1.4-1.867,2.801-2.332,4.668h39.666c-0.467-1.867-1.398-3.268-2.334-4.668H54.6z M72.334,93.334
	c5.133,0,9.332-1.867,13.066-4.668H59.266C63,91.467,67.2,93.334,72.334,93.334z M55.066,84h35c0.935-1.4,1.867-2.8,2.334-4.666
	H52.734C53.2,81.2,54.133,82.6,55.066,84z M72.334,51.333C67.2,51.333,63,53.2,59.268,56H85.4
	C81.666,53.2,77.467,51.333,72.334,51.333z"/>
</svg>
