<?xml version="1.0" encoding="utf-8"?>
<!-- Generator: Adobe Illustrator 16.0.0, SVG Export Plug-In . SVG Version: 6.00 Build 0)  -->
<!DOCTYPE svg PUBLIC "-//W3C//DTD SVG 1.1//EN" "http://www.w3.org/Graphics/SVG/1.1/DTD/svg11.dtd">
<svg version="1.1" id="Layer_1" xmlns="http://www.w3.org/2000/svg" xmlns:xlink="http://www.w3.org/1999/xlink" x="0px" y="0px"
	 width="15.375px" height="26.875px" viewBox="0 0 15.375 26.875" enable-background="new 0 0 15.375 26.875" xml:space="preserve">
<g id="c56_light_bulb">
	<path fill="#FFFFFF" d="M15.373,7.537c-0.043-4.245-3.515-7.618-7.757-7.536C5.492,0.044,3.578,0.942,2.201,2.36
		C0.824,3.78-0.021,5.721,0,7.841c0.013,1.422,0.416,2.742,1.1,3.867c0,0.002-0.005,0.01-0.005,0.01
		c0.121,0.188,2.011,3.586,2.146,3.938c0.086,0.086,0.145,0.506,0.187,1.084v-0.002c0,0,4.152,1.844,8.742,0l-0.012-0.557h-0.002
		c0.033-0.282,0.069-0.57,0.117-0.701c0.133-0.361,1.957-3.831,2.074-4.027c0,0-0.006-0.006-0.006-0.01
		C15.005,10.288,15.382,8.956,15.373,7.537z M5.503,16.278l-1.696-6.017c-0.051-0.176,0-0.356,0.119-0.483
		c0.054-0.055,0.125-0.1,0.206-0.125c0.257-0.079,0.525,0.063,0.603,0.318l1.782,6.291L5.503,16.278z M7.213,11.194l-2.358-1.75
		l0.477-0.638l2.356,1.749L7.213,11.194z M7.688,10.523l2.321-1.796l0.484,0.63l-2.323,1.794L7.688,10.523z M11.609,10.105
		l-1.586,6.107l-1.005,0.016l1.657-6.376C10.699,9.77,10.742,9.7,10.8,9.642c0.115-0.123,0.3-0.179,0.475-0.132
		C11.531,9.582,11.682,9.847,11.609,10.105z"/>
	<path fill="#FFFFFF" d="M5.98,24.483c0.004,0.117,0.009,0.248,0.022,0.382h3.865c0.016-0.218,0.014-0.382,0.014-0.382H5.98z"/>
	<path fill="#FFFFFF" d="M6.508,26.294c0.814,0.789,2.113,0.771,2.9-0.041c0.059-0.061,0.104-0.139,0.148-0.217H6.318
		C6.375,26.132,6.435,26.223,6.508,26.294z"/>
	<path fill="#FFFFFF" d="M6.167,25.694H9.71c0.052-0.153,0.092-0.317,0.117-0.485H6.047C6.077,25.375,6.114,25.539,6.167,25.694z"/>
	<path fill="#FFFFFF" d="M12.235,21.38l-0.065-3.825c0,0-3.767,1.817-8.694,0.017c0.078,1.709,0.065,3.936,0.065,3.936l2.451,2.379
		c0,0-0.008,0.104-0.012,0.255h3.897c-0.012-0.188-0.021-0.312-0.021-0.312L12.235,21.38z"/>
</g>
<g id="Capa_1">
</g>
</svg>
