<?xml version="1.0" encoding="utf-8"?>
<!-- Generator: Adobe Illustrator 16.0.0, SVG Export Plug-In . SVG Version: 6.00 Build 0)  -->
<!DOCTYPE svg PUBLIC "-//W3C//DTD SVG 1.1//EN" "http://www.w3.org/Graphics/SVG/1.1/DTD/svg11.dtd">
<svg version="1.1" id="Layer_1" xmlns="http://www.w3.org/2000/svg" xmlns:xlink="http://www.w3.org/1999/xlink" x="0px" y="0px"
	 width="100px" height="100px" viewBox="0 0 100 100" enable-background="new 0 0 100 100" xml:space="preserve">
<g>
	<path fill="#FFFFFF" d="M52.18,40.451c-5.956,0-10.8,4.845-10.8,10.799s4.844,10.799,10.8,10.799
		c5.952,0,10.797-4.845,10.797-10.799S58.132,40.451,52.18,40.451z M52.18,57.375c-3.378,0-6.125-2.748-6.125-6.125
		c0-3.376,2.747-6.124,6.125-6.124c3.375,0,6.122,2.748,6.122,6.124C58.302,54.627,55.555,57.375,52.18,57.375z"/>
	<circle fill="#FFFFFF" cx="52.18" cy="51.25" r="3.536"/>
	<path fill="#FFFFFF" d="M52.18,33.431c-9.826,0-17.819,7.995-17.819,17.819s7.993,17.818,17.819,17.818
		c9.823,0,17.817-7.994,17.817-17.818S62.003,33.431,52.18,33.431z M52.18,64.395c-7.249,0-13.146-5.896-13.146-13.145
		c0-7.248,5.896-13.145,13.146-13.145c7.248,0,13.144,5.896,13.144,13.145C65.322,58.499,59.427,64.395,52.18,64.395z"/>
	<path fill="#FFFFFF" d="M52.18,25.502c-14.199,0-25.749,11.55-25.749,25.748c0,14.197,11.55,25.748,25.749,25.748
		c14.196,0,25.747-11.551,25.747-25.748C77.927,37.052,66.376,25.502,52.18,25.502z M52.18,72.324
		c-11.622,0-21.075-9.454-21.075-21.074s9.453-21.074,21.075-21.074c11.618,0,21.072,9.454,21.072,21.074
		S63.798,72.324,52.18,72.324z"/>
</g>
</svg>
